:SAMPLES-PER-SECOND 30
:FRAME-RANGE 1-2045
:FULLY-SPECIFIED
:DEGREES
1087
root  -55.8806 38.0063 -23.2177 -177.235 -8.00293 -176.064
RightUpLeg  -17.1903 -24.8088 -0.845199
RightLeg  44.2305 -10.7931 -11.3395
RightFoot  -17.3456 0.39234 9.70837
RightToes  5.82063e-011 0 -3.6325e-017
Spine  16.5246 -2.23584 -7.67079
Spine1  -3.7856 -4.29613 6.17873
HEad  3.94221 -24.6244 12.2504
LeftShoulder1  1.71879 -1.61121 -27.4988
LeftArm  17.3156 -18.7171 -47.6845
LeftForeArm  21.3358 -35.9356 -6.85323
LeftHand  0.0451013 -3.03809 -0.39495
RightShoulder  0.0249629 -3.42017 40.2698
RightArm  16.8946 -9.38835 12.5136
RightForeArm  1.42939 48.052 12.3992
RightHand  1.16126 4.54407 13.2039
LeftUpLeg  -13.212 17.1258 11.1619
LeftLeg  32.3725 -5.64763 -3.49636
LeftFoot  -20.3369 -0.637195 -9.62985
LeftToes  -3.90176e-010 -2.48536e-010 1.05482e-011
1088
root  -56.5162 38.1654 -24.0847 -176.895 -8.28452 -176.274
RightUpLeg  -20.2451 -27.4101 4.73885
RightLeg  39.9032 -11.7541 -10.6132
RightFoot  -18.0082 0.393037 8.83307
RightToes  5.82063e-011 0 -3.6325e-017
Spine  16.6699 -3.21742 -9.44728
Spine1  -3.90618 -5.91128 8.41465
HEad  2.26296 -23.3 12.7618
LeftShoulder1  1.8153 -1.85345 -27.7915
LeftArm  20.6081 -17.0174 -54.5356
LeftForeArm  32.2611 -38.3726 -6.86573
LeftHand  -0.00245777 -3.61791 0.285202
RightShoulder  -0.901319 -5.44554 39.347
RightArm  13.4214 -9.54195 12.6705
RightForeArm  -1.54906 48.2192 12.6877
RightHand  1.08201 3.79804 13.3388
LeftUpLeg  -11.0392 16.6693 10.3443
LeftLeg  30.4798 -5.45755 -3.1153
LeftFoot  -20.7597 -0.644814 -9.3202
LeftToes  -3.90176e-010 -2.48536e-010 1.05482e-011
1089
root  -57.1244 38.2264 -25.0474 -176.801 -7.44263 -176.386
RightUpLeg  -22.0692 -28.283 10.1569
RightLeg  33.4268 -14.5931 -10.3831
RightFoot  -18.9607 0.469766 8.97307
RightToes  5.82063e-011 0 -3.6325e-017
Spine  16.4025 -4.4648 -10.4491
Spine1  -3.73486 -7.53925 9.77768
HEad  1.85944 -20.8289 12.5854
LeftShoulder1  1.91957 -2.11042 -28.1089
LeftArm  19.322 -15.6188 -57.0871
LeftForeArm  36.1388 -41.6338 -7.58584
LeftHand  -0.041511 -3.67566 0.788239
RightShoulder  -1.58893 -7.00057 38.6808
RightArm  10.6644 -10.1162 12.7474
RightForeArm  -3.75855 49.7368 13.5661
RightHand  1.03869 3.20448 13.7258
LeftUpLeg  -8.65489 17.0947 9.8973
LeftLeg  29.6166 -5.05112 -2.75553
LeftFoot  -21.4004 -0.696638 -9.3553
LeftToes  -3.90176e-010 -2.48536e-010 1.05482e-011
1090
root  -57.6664 38.1738 -26.1131 -177.157 -4.86237 -176.978
RightUpLeg  -22.127 -27.2954 14.2575
RightLeg  26.0662 -16.3437 -8.73393
RightFoot  -18.5646 0.292379 6.62164
RightToes  5.82063e-011 0 -3.6325e-017
Spine  15.834 -5.41446 -10.7469
Spine1  -3.59633 -8.42949 9.30089
HEad  2.8219 -18.219 11.693
LeftShoulder1  1.86763 -1.96628 -28.0575
LeftArm  15.1421 -15.081 -54.9462
LeftForeArm  35.7831 -45.3938 -8.84317
LeftHand  0.0118488 -3.35886 0.0848702
RightShoulder  -2.14815 -8.33524 37.8167
RightArm  9.63874 -10.9361 13.0937
RightForeArm  -3.48131 51.4832 14.4455
RightHand  1.01342 3.00083 13.7295
LeftUpLeg  -6.19645 18.9349 9.5374
LeftLeg  30.9918 -4.80036 -2.75918
LeftFoot  -21.5801 -0.837468 -10.7641
LeftToes  -3.90176e-010 -2.48536e-010 1.05482e-011
1091
root  -58.1909 37.9729 -27.2874 -178.302 -1.31232 -178.009
RightUpLeg  -21.5142 -24.2535 16.2354
RightLeg  23.7654 -15.23 -7.43035
RightFoot  -15.7789 -0.285516 -4.61504
RightToes  5.82063e-011 0 -3.6325e-017
Spine  15.1494 -5.78196 -9.92051
Spine1  -3.34476 -8.41782 7.74953
HEad  4.30278 -16.2039 10.005
LeftShoulder1  1.7336 -1.63433 -27.6401
LeftArm  10.4323 -16.1436 -50.5575
LeftForeArm  34.2019 -45.6202 -9.03133
LeftHand  0.00986364 -3.15814 0.0990815
RightShoulder  -2.35306 -9.01015 36.1767
RightArm  9.40658 -13.0448 13.2582
RightForeArm  -1.43236 53.3342 15.3287
RightHand  1.03761 3.09645 13.8939
LeftUpLeg  -4.09025 21.6465 9.54616
LeftLeg  35.7662 -5.03857 -3.52893
LeftFoot  -20.7989 -1.05986 -14.2528
LeftToes  -3.90176e-010 -2.48536e-010 1.05482e-011
1092
root  -58.7272 37.4901 -28.4915 -179.864 1.98938 -179.27
RightUpLeg  -20.5817 -13.4127 14.1727
RightLeg  30.2151 -18.5333 -11.5345
RightFoot  -17.3803 -0.513292 -7.49365
RightToes  5.82063e-011 0 -3.6325e-017
Spine  14.8706 -5.71669 -8.31234
Spine1  -3.66346 -7.7534 6.33731
HEad  6.38896 -14.5201 7.08765
LeftShoulder1  1.65156 -1.51482 -26.7813
LeftArm  6.59079 -17.9073 -45.841
LeftForeArm  30.8889 -42.186 -8.09491
LeftHand  -0.0245239 -2.90596 0.565342
RightShoulder  -2.37584 -9.32269 34.337
RightArm  9.55735 -15.0903 12.7321
RightForeArm  0.0638272 54.6091 15.9829
RightHand  1.05303 3.097 14.1006
LeftUpLeg  -4.25635 23.7464 9.88446
LeftLeg  45.1962 -5.04165 -5.01381
LeftFoot  -16.9532 -0.877678 -19.7915
LeftToes  -3.90176e-010 -2.48536e-010 1.05482e-011
1093
root  -59.2788 36.7976 -29.6392 178.207 4.41306 -179.592
RightUpLeg  -20.6146 -6.20413 12.474
RightLeg  40.1483 -20.6723 -17.9427
RightFoot  -19.9378 -0.493895 -4.7747
RightToes  5.82063e-011 0 -3.6325e-017
Spine  14.9934 -5.77454 -5.28252
Spine1  -3.55502 -6.97642 5.13735
HEad  7.66712 -12.538 4.47798
LeftShoulder1  1.56322 -1.36911 -25.9205
LeftArm  3.47126 -19.8144 -40.8983
LeftForeArm  26.1979 -39.0571 -7.43723
LeftHand  -0.0126098 -2.819 0.395789
RightShoulder  -2.20462 -9.05169 33.2686
RightArm  9.38729 -15.5526 11.7245
RightForeArm  0.337847 54.8011 16.0814
RightHand  1.04157 3.05045 14.0264
LeftUpLeg  -6.8012 22.8708 10.9645
LeftLeg  56.9506 -4.63732 -7.13502
LeftFoot  -6.91574 0.913479 -22.3217
LeftToes  -3.90176e-010 -2.48536e-010 1.05482e-011
1094
root  -59.9042 36.0721 -30.7303 176.711 5.55414 -178.784
RightUpLeg  -20.2347 -7.80372 11.9642
RightLeg  46.2943 -17.3334 -18.7589
RightFoot  -23.7814 -0.475914 -2.88866
RightToes  5.82063e-011 0 -3.6325e-017
Spine  14.864 -6.37569 -1.53144
Spine1  -2.42638 -6.77499 5.28002
HEad  7.87849 -10.0192 2.78706
LeftShoulder1  1.44325 -1.15477 -24.7721
LeftArm  -0.0715974 -20.329 -36.7352
LeftForeArm  24.1854 -38.2857 -7.33835
LeftHand  -0.013361 -2.67364 0.402471
RightShoulder  -1.7707 -7.97101 33.1531
RightArm  8.96642 -13.9138 10.6277
RightForeArm  -0.839533 53.4026 15.3217
RightHand  1.02629 3.07015 13.7859
LeftUpLeg  -11.5741 18.8177 11.7352
LeftLeg  68.0294 -4.34795 -11.0524
LeftFoot  6.13405 2.59919 -17.0485
LeftToes  -3.90176e-010 -2.48536e-010 1.05482e-011
